<?xml version="1.0" encoding="UTF-8" standalone="no"?>
<!-- Created with matplotlib (https://matplotlib.org/) -->

<svg
   xmlns:dc="http://purl.org/dc/elements/1.1/"
   xmlns:cc="http://creativecommons.org/ns#"
   xmlns:rdf="http://www.w3.org/1999/02/22-rdf-syntax-ns#"
   xmlns:svg="http://www.w3.org/2000/svg"
   xmlns="http://www.w3.org/2000/svg"
   xmlns:sodipodi="http://sodipodi.sourceforge.net/DTD/sodipodi-0.dtd"
   xmlns:inkscape="http://www.inkscape.org/namespaces/inkscape"
   height="95.895515pt"
   version="1.1"
   viewBox="0 0 336.02918 95.895514"
   width="336.02917pt"
   id="svg1139"
   sodipodi:docname="lowAmplitude.svg"
   inkscape:version="0.92.4 (5da689c313, 2019-01-14)">
  <metadata
     id="metadata1143">
    <rdf:RDF>
      <cc:Work
         rdf:about="">
        <dc:format>image/svg+xml</dc:format>
        <dc:type
           rdf:resource="http://purl.org/dc/dcmitype/StillImage" />
        <dc:title></dc:title>
      </cc:Work>
    </rdf:RDF>
  </metadata>
  <sodipodi:namedview
     pagecolor="#ffffff"
     bordercolor="#666666"
     borderopacity="1"
     objecttolerance="10"
     gridtolerance="10"
     guidetolerance="10"
     inkscape:pageopacity="0"
     inkscape:pageshadow="2"
     inkscape:window-width="2880"
     inkscape:window-height="1706"
     id="namedview1141"
     showgrid="false"
     inkscape:zoom="1.4485868"
     inkscape:cx="215.88123"
     inkscape:cy="35.558858"
     inkscape:window-x="3829"
     inkscape:window-y="-11"
     inkscape:window-maximized="1"
     inkscape:current-layer="svg1139"
     fit-margin-top="0"
     fit-margin-left="0"
     fit-margin-right="0"
     fit-margin-bottom="0"
     inkscape:pagecheckerboard="true" />
  <defs
     id="defs829"
     style="stroke-linecap:butt;stroke-linejoin:round">
    <style
       type="text/css"
       id="style827">
*{stroke-linecap:butt;stroke-linejoin:round;}
  </style>
  </defs>
  <g
     id="line2d_18"
     style="stroke-linecap:butt;stroke-linejoin:round"
     transform="translate(-68.145318,-126.58716)">
    <path
       clip-path="url(#pad42e4c681)"
       d="m 73.832727,174.52815 13.958078,-11.29236 7.754487,-5.97061 6.203588,-4.50352 5.68663,-3.85472 5.16966,-3.23669 4.65269,-2.66736 4.65269,-2.41217 4.13573,-1.9141 4.13572,-1.68476 4.13573,-1.44467 4.13573,-1.19531 4.13572,-0.93833 3.61876,-0.60546 3.61876,-0.40112 3.61877,-0.19481 3.61876,0.0125 3.61876,0.21965 3.61876,0.42579 3.61876,0.62982 3.61876,0.83079 4.13573,1.19027 4.13572,1.43978 4.13573,1.68009 4.13573,1.90964 4.65269,2.40748 4.65269,2.66302 5.16966,3.23235 5.16966,3.48888 5.68662,4.09239 6.72056,5.1144 8.27145,6.5859 26.88223,21.63977 6.72055,4.99131 5.68663,3.95986 5.16965,3.34725 5.16966,3.07203 4.65269,2.50409 4.6527,2.23598 4.13572,1.74779 4.13573,1.51045 4.13573,1.26343 4.13572,1.00836 3.61876,0.66794 3.61877,0.46441 3.61876,0.2586 3.61876,0.0515 3.61876,-0.15581 3.61876,-0.36237 3.61876,-0.56717 3.61876,-0.76918 4.13573,-1.12156 4.13572,-1.37328 4.13573,-1.61622 4.13573,-1.84883 4.65269,-2.34318 4.65269,-2.60361 5.16966,-3.17262 5.16966,-3.43635 5.68662,-4.04356 6.72056,-5.06954 8.27145,-6.55083 8.78842,-7.16053 v 0"
       style="fill:none;stroke:#000000;stroke-width:11.25;stroke-linecap:round;stroke-linejoin:round;stroke-miterlimit:4;stroke-dasharray:none"
       id="path1114"
       inkscape:connector-curvature="0" />
  </g>
  <g
     id="line2d_19"
     style="stroke-linecap:butt;stroke-linejoin:round"
     transform="translate(-68.145318,-126.58716)">
    <path
       clip-path="url(#pad42e4c681)"
       d="M 73.832727,174.52815 H 398.48727"
       style="fill:none;stroke:#000000;stroke-width:3.75;stroke-linecap:round;stroke-linejoin:round;stroke-miterlimit:4;stroke-dasharray:none"
       id="path1117"
       inkscape:connector-curvature="0" />
  </g>
  <defs
     id="defs1137">
    <clipPath
       id="pad42e4c681"
       style="stroke-linecap:butt;stroke-linejoin:round">
      <rect
         height="266.112"
         width="357.12"
         x="57.599998"
         y="41.472"
         id="rect1134"
         style="stroke-linecap:butt;stroke-linejoin:round" />
    </clipPath>
  </defs>
</svg>
