<?xml version="1.0" encoding="UTF-8" standalone="no"?>
<!-- Generator: Adobe Illustrator 22.1.0, SVG Export Plug-In . SVG Version: 6.00 Build 0)  -->

<svg
   xmlns:dc="http://purl.org/dc/elements/1.1/"
   xmlns:cc="http://creativecommons.org/ns#"
   xmlns:rdf="http://www.w3.org/1999/02/22-rdf-syntax-ns#"
   xmlns:svg="http://www.w3.org/2000/svg"
   xmlns="http://www.w3.org/2000/svg"
   xmlns:sodipodi="http://sodipodi.sourceforge.net/DTD/sodipodi-0.dtd"
   xmlns:inkscape="http://www.inkscape.org/namespaces/inkscape"
   version="1.1"
   id="Ebene_1"
   x="0px"
   y="0px"
   viewBox="0 0 182.2 25.9"
   xml:space="preserve"
   sodipodi:docname="mp_logo.svg"
   width="182.2"
   height="25.9"
   inkscape:version="0.92.4 (5da689c313, 2019-01-14)"><metadata
   id="metadata43"><rdf:RDF><cc:Work
       rdf:about=""><dc:format>image/svg+xml</dc:format><dc:type
         rdf:resource="http://purl.org/dc/dcmitype/StillImage" /><dc:title></dc:title></cc:Work></rdf:RDF></metadata><defs
   id="defs41" /><sodipodi:namedview
   pagecolor="#ffffff"
   bordercolor="#666666"
   borderopacity="1"
   objecttolerance="10"
   gridtolerance="10"
   guidetolerance="10"
   inkscape:pageopacity="0"
   inkscape:pageshadow="2"
   inkscape:window-width="2560"
   inkscape:window-height="1346"
   id="namedview39"
   showgrid="false"
   inkscape:pagecheckerboard="true"
   fit-margin-top="0"
   fit-margin-left="0"
   fit-margin-right="-0.2"
   fit-margin-bottom="0"
   inkscape:zoom="1.9029126"
   inkscape:cx="90"
   inkscape:cy="54.840816"
   inkscape:window-x="-11"
   inkscape:window-y="-11"
   inkscape:window-maximized="1"
   inkscape:current-layer="Ebene_1" />
<style
   type="text/css"
   id="style2">
	.st0{fill:#FF7E38;}
	.st1{fill:#1D1D1B;}
</style>

<g
   id="Ebene_3"
   transform="translate(-13,-12.9)">
	<g
   id="g35">
		<path
   class="st1"
   d="m 188.9,33.3 h -3.1 V 18.9 h 3.1 z"
   id="path7"
   inkscape:connector-curvature="0"
   style="fill:#1d1d1b" />
		<path
   class="st1"
   d="M 61.2,29.9 V 15 h 3.1 v 3.9 h 2.9 v 2.7 h -2.9 v 7.5 c 0,1 0.5,1.7 1.4,1.7 0.6,0 1.2,-0.2 1.4,-0.5 l 0.7,2.4 c -0.6,0.5 -1.5,0.9 -2.9,0.9 -2.4,0 -3.7,-1.3 -3.7,-3.7 z"
   id="path9"
   inkscape:connector-curvature="0"
   style="fill:#1d1d1b" />
		<circle
   class="st1"
   cx="192.89999"
   cy="20.9"
   r="2.3"
   id="circle11"
   style="fill:#1d1d1b" />
		<g
   id="g31">
			<g
   id="g23">
				<path
   class="st1"
   d="M 103.3,38.8 V 18.9 h 3.1 v 2 c 1.1,-1.4 2.7,-2.3 4.6,-2.3 3.7,0 6.4,2.8 6.4,7.5 0,4.7 -2.6,7.6 -6.4,7.6 -1.8,0 -3.5,-0.8 -4.6,-2.4 v 7.5 c 0,0 -3.1,0 -3.1,0 z m 6.8,-17.5 c -1.5,0 -3,0.9 -3.7,1.9 v 5.7 c 0.7,1 2.2,1.9 3.7,1.9 2.5,0 4,-2 4,-4.8 0,-2.7 -1.5,-4.7 -4,-4.7 z"
   id="path13"
   inkscape:connector-curvature="0"
   style="fill:#1d1d1b" />
				<path
   class="st1"
   d="m 126.7,18.5 c 4.3,0 7.1,3.3 7.1,7.8 V 27 h -11.1 c 0.2,2.2 1.9,4 4.6,4 1.4,0 3.1,-0.6 4.1,-1.6 l 1.4,2.1 c -1.4,1.4 -3.5,2.1 -5.8,2.1 -4.3,0 -7.5,-3 -7.5,-7.6 -0.1,-4.1 3,-7.5 7.2,-7.5 z m -4,6.4 h 8.1 c -0.1,-1.7 -1.2,-3.8 -4,-3.8 -2.7,0 -4,2.1 -4.1,3.8 z"
   id="path15"
   inkscape:connector-curvature="0"
   style="fill:#1d1d1b" />
				<path
   class="st1"
   d="M 136.3,38.8 V 18.9 h 3.1 v 2 c 1.1,-1.4 2.7,-2.3 4.6,-2.3 3.7,0 6.4,2.8 6.4,7.5 0,4.7 -2.6,7.6 -6.4,7.6 -1.8,0 -3.5,-0.8 -4.6,-2.4 v 7.5 c 0,0 -3.1,0 -3.1,0 z m 6.8,-17.5 c -1.5,0 -3,0.9 -3.7,1.9 v 5.7 c 0.7,1 2.2,1.9 3.7,1.9 2.5,0 4,-2 4,-4.8 0.1,-2.7 -1.5,-4.7 -4,-4.7 z"
   id="path17"
   inkscape:connector-curvature="0"
   style="fill:#1d1d1b" />
				<path
   class="st1"
   d="M 152.9,38.8 V 18.9 h 3.1 v 2 c 1.1,-1.4 2.7,-2.3 4.6,-2.3 3.7,0 6.4,2.8 6.4,7.5 0,4.7 -2.6,7.6 -6.4,7.6 -1.8,0 -3.5,-0.8 -4.6,-2.4 v 7.5 c 0,0 -3.1,0 -3.1,0 z m 6.8,-17.5 c -1.5,0 -3,0.9 -3.7,1.9 v 5.7 c 0.7,1 2.2,1.9 3.7,1.9 2.5,0 4,-2 4,-4.8 0.1,-2.7 -1.5,-4.7 -4,-4.7 z"
   id="path19"
   inkscape:connector-curvature="0"
   style="fill:#1d1d1b" />
				<path
   class="st1"
   d="m 176.3,18.5 c 4.3,0 7.1,3.3 7.1,7.8 V 27 h -11.2 c 0.2,2.2 1.9,4 4.6,4 1.4,0 3.1,-0.6 4.1,-1.6 l 1.4,2.1 c -1.4,1.4 -3.5,2.1 -5.8,2.1 -4.3,0 -7.5,-3 -7.5,-7.6 0,-4.1 3,-7.5 7.3,-7.5 z m -4.1,6.4 h 8.1 c -0.1,-1.7 -1.2,-3.8 -4,-3.8 -2.7,0 -3.9,2.1 -4.1,3.8 z"
   id="path21"
   inkscape:connector-curvature="0"
   style="fill:#1d1d1b" />
			</g>
			<path
   class="st1"
   d="m 30.6,23.9 c 0,-1.5 -0.7,-2.6 -2.4,-2.6 -1.4,0 -2.7,1 -3.3,1.9 v 10.1 h -3.1 v -9.4 c 0,-1.5 -0.7,-2.6 -2.4,-2.6 -1.4,0 -2.6,1 -3.3,1.9 v 10 H 13 V 18.9 h 3.1 v 2 c 0.6,-0.9 2.5,-2.3 4.7,-2.3 2.1,0 3.5,1.1 3.9,2.6 0.8,-1.3 2.7,-2.6 4.9,-2.6 2.6,0 4.1,1.4 4.1,4.3 v 10.4 h -3.1 c 0,0 0,-9.4 0,-9.4 z"
   id="path25"
   inkscape:connector-curvature="0"
   style="fill:#1d1d1b" />
			<path
   class="st1"
   d="m 37.1,14.8 c 0,-1.1 0.9,-1.9 1.9,-1.9 1.1,0 1.9,0.9 1.9,1.9 0,1.1 -0.9,1.9 -1.9,1.9 -1,0 -1.9,-0.9 -1.9,-1.9 z m 0.4,4.1 h 3.1 v 14.4 h -3.1 z"
   id="path27"
   inkscape:connector-curvature="0"
   style="fill:#1d1d1b" />
			<polygon
   class="st1"
   points="44.5,33.3 47.6,33.3 47.6,21.6 54.3,21.6 54.3,33.3 57.4,33.3 57.4,18.9 44.5,18.9 "
   id="polygon29"
   style="fill:#1d1d1b" />
		</g>
		<path
   class="st1"
   d="m 93.7,33.3 -3,-4.2 c 1,-1.5 1.8,-3.1 2.5,-4.5 l -2.5,-1.1 c -0.3,0.9 -0.8,2.2 -1.5,3.4 L 81.9,16.8 h 8.6 v -3 H 77.6 v 2.6 l 4.1,5.6 c -0.3,0.2 -0.9,0.4 -0.9,0.5 -2.1,1.2 -4.1,2.7 -4.1,5.6 0,3.7 2.8,5.6 6.3,5.6 2.2,0 4,-0.8 5.5,-2.1 l 0.1,-0.1 1.3,1.8 c 0,0 3.8,0 3.8,0 z M 87,29.6 c -1.3,1.1 -2.3,1.5 -3.6,1.5 -1.8,0 -3.4,-1.2 -3.4,-3.4 0,-1.6 0.9,-2.7 2.2,-3.5 0.3,-0.2 0.6,-0.3 0.8,-0.4 l 4.1,5.6 c 0,0.1 -0.1,0.2 -0.1,0.2 z"
   id="path33"
   inkscape:connector-curvature="0"
   style="fill:#1d1d1b" />
	</g>
</g>
</svg>