<?xml version="1.0" encoding="UTF-8" standalone="no"?>
<svg
   xmlns:dc="http://purl.org/dc/elements/1.1/"
   xmlns:cc="http://creativecommons.org/ns#"
   xmlns:rdf="http://www.w3.org/1999/02/22-rdf-syntax-ns#"
   xmlns:svg="http://www.w3.org/2000/svg"
   xmlns="http://www.w3.org/2000/svg"
   xmlns:sodipodi="http://sodipodi.sourceforge.net/DTD/sodipodi-0.dtd"
   xmlns:inkscape="http://www.inkscape.org/namespaces/inkscape"
   version="1.0"
   width="528.76776pt"
   height="438.83301pt"
   viewBox="0 0 528.76776 438.83301"
   preserveAspectRatio="xMidYMid meet"
   id="svg10"
   sodipodi:docname="rabbit.svg"
   inkscape:version="0.92.4 (5da689c313, 2019-01-14)">
  <defs
     id="defs14" />
  <sodipodi:namedview
     pagecolor="#ffffff"
     bordercolor="#666666"
     borderopacity="1"
     objecttolerance="10"
     gridtolerance="10"
     guidetolerance="10"
     inkscape:pageopacity="0"
     inkscape:pageshadow="2"
     inkscape:window-width="1428"
     inkscape:window-height="1202"
     id="namedview12"
     showgrid="false"
     inkscape:zoom="0.2296875"
     inkscape:cx="-148.08723"
     inkscape:cy="292.02279"
     inkscape:window-x="4417"
     inkscape:window-y="158"
     inkscape:window-maximized="0"
     inkscape:current-layer="svg10"
     inkscape:pagecheckerboard="true"
     fit-margin-top="0"
     fit-margin-left="0"
     fit-margin-right="0"
     fit-margin-bottom="0" />
  <metadata
     id="metadata2">
Created by potrace 1.15, written by Peter Selinger 2001-2017
<rdf:RDF>
  <cc:Work
     rdf:about="">
    <dc:format>image/svg+xml</dc:format>
    <dc:type
       rdf:resource="http://purl.org/dc/dcmitype/StillImage" />
    <dc:title></dc:title>
  </cc:Work>
</rdf:RDF>
</metadata>
  <path
     style="fill:#000000;stroke:none;stroke-width:0.1"
     inkscape:connector-curvature="0"
     id="path4"
     d="m 297.83456,0.81591543 c -2.6,1.49999997 -5.9,10.49999957 -7.1,19.39999957 -1.6,11.5 0.6,22.8 6.6,35.1 6.4,13.1 12.2,20.8 31.9,41.8 17.3,18.500005 22.2,25.300005 21.5,29.900005 -0.2,1.9 -1.4,2.6 -6.8,4 -10.5,2.9 -22.6,3.2 -42.5,1.2 -20.8,-2 -40.6,-2.3 -48.5,-0.6 -3,0.7 -11.6,1.4 -19,1.6 -20.1,0.7 -37.2,4.2 -55,11.4 -36.3,14.5 -42.3,18.5 -72,46.6 -7.999997,7.6 -16.799997,15.3 -19.599997,17.1 -6.4,4.1 -11,9.5 -18.6,21.7 -3.3,5.3 -7.2,11.1 -8.7,12.8 l -2.7,3.2 -14.4,0.3 c -10.5,0.2 -16,0.7 -19.9,2 -6.2,1.9 -11.6,6.7 -12.7,11 -3.4,13.5 22.8,43.5 37.9,43.5 3.4,0 3.8,0.2 2.7,1.5 -0.7,0.9 -6,3.8 -11.7,6.7 -15.1,7.4 -17.7,11.7 -27.8,46.6 -2.9,10.3 -6.6,21.9 -8.1,25.7 -4.7,12 -4.4,34 0.7,45.5 4.6,10.3 10.8,12.7 18.6,7 8.2,-6.1 12.1,-13.3 20.5,-37.9 6.9,-20.4 10.4,-27.5 17.5,-35.1 10.4,-11.3 20.8,-14.8 46.299997,-15.9 15.9,-0.6 18,-0.9 23.2,-3.3 8,-3.7 15.5,-9 29.8,-21.2 6.8,-5.9 13.6,-10.9 15,-11.3 4,-1 17.5,-7.5 31.5,-15.2 13.3,-7.3 25.2,-11.7 44,-16.4 23.1,-5.8 51.9,-10.8 72.1,-12.6 9.8,-0.9 12.1,-0.8 19,1 4.3,1 18.5,3.3 31.4,4.9 29.8,3.9 40,6.4 55.9,13.9 19.6,9.2 32.5,12.1 39.5,9 3,-1.4 5.6,-6.5 5.6,-11.1 0,-4.5 -4.5,-11.3 -11.5,-17.3 -3,-2.6 -5.5,-5.1 -5.5,-5.6 0,-2.1 10.4,-0.1 32.4,6 8,2.3 13.1,3.1 18.9,3.1 9.2,0 13.2,-1.5 17.8,-6.8 2.6,-2.9 3,-4.1 2.6,-7 -0.4,-1.9 -1.3,-4.5 -2.2,-5.8 -3.1,-4.7 -5.8,-5.6 -18.3,-6.1 -11.4,-0.5 -12,-0.6 -24.8,-5.9 -7.2,-2.9 -17.1,-6.3 -22,-7.5 -10.7,-2.6 -14.1,-3.8 -16,-5.6 -2.3,-2.3 -1.6,-6 1.8,-9.8 4.5,-5.2 11.8,-8.6 20.8,-9.7 10.2,-1.2 15.4,-3.9 18.7,-9.5 5.5,-9.4 3.5,-28 -4.4,-41 -2,-3.2 -5.1,-8.4 -7,-11.6 -10.1,-16.9 -28.7,-30.4 -53.4,-38.6 l -9.6,-3.2 -5.8,-12.700005 c -15.1,-33.2 -26,-51.9 -34.9,-60 -5.5,-5 -16.3,-10.4 -25.6,-12.8 -8,-2 -16.2,-1.4 -20.2,1.6 -3.5,2.5 -3.3,2.7 -11.3,-7.3 -8.3,-10.3999996 -12.5,-13.0999996 -16.6,-10.69999957 z" />
</svg>
