<?xml version="1.0" encoding="UTF-8" standalone="no"?>
<svg
   xmlns:dc="http://purl.org/dc/elements/1.1/"
   xmlns:cc="http://creativecommons.org/ns#"
   xmlns:rdf="http://www.w3.org/1999/02/22-rdf-syntax-ns#"
   xmlns:svg="http://www.w3.org/2000/svg"
   xmlns="http://www.w3.org/2000/svg"
   xmlns:sodipodi="http://sodipodi.sourceforge.net/DTD/sodipodi-0.dtd"
   xmlns:inkscape="http://www.inkscape.org/namespaces/inkscape"
   version="1.0"
   width="528.13806pt"
   height="250.32857pt"
   viewBox="0 0 528.13806 250.32857"
   preserveAspectRatio="xMidYMid meet"
   id="svg10"
   sodipodi:docname="turtle.svg"
   inkscape:version="0.92.4 (5da689c313, 2019-01-14)">
  <defs
     id="defs14" />
  <sodipodi:namedview
     pagecolor="#ffffff"
     bordercolor="#666666"
     borderopacity="1"
     objecttolerance="10"
     gridtolerance="10"
     guidetolerance="10"
     inkscape:pageopacity="0"
     inkscape:pageshadow="2"
     inkscape:window-width="640"
     inkscape:window-height="480"
     id="namedview12"
     showgrid="false"
     inkscape:zoom="0.2296875"
     inkscape:cx="853.02823"
     inkscape:cy="291.88662"
     inkscape:window-x="4795"
     inkscape:window-y="403"
     inkscape:window-maximized="0"
     inkscape:current-layer="svg10"
     inkscape:pagecheckerboard="true"
     fit-margin-top="0"
     fit-margin-left="0"
     fit-margin-right="0"
     fit-margin-bottom="0" />
  <metadata
     id="metadata2">
Created by potrace 1.15, written by Peter Selinger 2001-2017
<rdf:RDF>
  <cc:Work
     rdf:about="">
    <dc:format>image/svg+xml</dc:format>
    <dc:type
       rdf:resource="http://purl.org/dc/dcmitype/StillImage" />
    <dc:title></dc:title>
  </cc:Work>
</rdf:RDF>
</metadata>
  <path
     style="fill:#000000;stroke:none;stroke-width:0.1"
     inkscape:connector-curvature="0"
     id="path6"
     d="m 235.67117,0.4135983 c -46.2,2 -80.2,9 -106.7,21.9999997 -18.2,8.9 -35.699999,22.2 -53.199999,40.7 -23.3,24.5 -38,52.800002 -41.5,79.800002 l -0.6,5 -12.2,-0.3 c -23.3999997,-0.6 -28.1999997,4.9 -11.7999997,13.7 6.8999997,3.6 16.4999997,6.3 33.0999997,9.1 15.7,2.7 24.9,5.3 32.3,9.3 4.5,2.3 5.7,3.5 5.5,5.1 -0.5,3.1 -5.6,5.5 -17.5,8 -14.6,3.2 -18.1,4.8 -24,11 -6.7,7 -8.7,13 -8.1,24 0.5,9.5 3.5,16.2 8.3,18.5 2.5,1.2 3.7,1.2 9,-0.2 3.8,-1 14.3,-2 28.5,-2.7 36.699999,-1.8 37.599999,-2.1 47.599999,-15.5 2.9,-4.1 6.4,-8.1 7.6,-8.9 2.7,-1.9 8.6,-2.1 14,-0.4 3.2,0.9 10.9,0.8 37.3,-0.7 29.9,-1.7 34.6,-1.7 46.1,-0.4 15.9,1.7 57.8,1.8 72.4,0 24.1,-2.8 48.1,-7.6 69.2,-13.7 13.3,-3.9 12.8,-3.8 12.8,-2.3 0,2.4 8.4,20.7 12.5,27.5 5,8 13.2,16.2 19.3,19.3 7.7,3.9 18.3,2 24.4,-4.5 4.6,-5 7.1,-12 7.6,-21.4 0.6,-13.5 -6.5,-45.3 -16.3,-72.7 -1.9,-5.4 -3.5,-10.4 -3.5,-11 0,-1.9 11,-7.1 18.4,-8.8 3.6,-0.8 15.8,-2.2 27.3,-3 21.4,-1.5 29.1,-2.9 37.8,-6.9 18.8,-8.6 22.3,-26.200002 8.4,-42.000002 -6.1,-6.9 -14.9,-10.9 -25.6,-11.4 -11.9,-0.6 -21,1.1 -43.3,8.3 -10.7,3.5 -23.5,7.1 -28.3,8 l -8.8,1.6 -10.7,-9.8 c -33.6,-31.1 -56.8,-48.1 -81.7,-59.9 -27,-12.7999997 -46.5,-16.0999997 -85.6,-14.3999997 z" />
</svg>
