<svg xmlns="http://www.w3.org/2000/svg" width="23.49" height="23.917" viewBox="0 0 23.49 23.917">
  <path id="Icon_metro-volume-medium" data-name="Icon metro-volume-medium" d="M21.777,24.344a1.281,1.281,0,0,1-.906-2.187,8.979,8.979,0,0,0,0-12.684,1.281,1.281,0,0,1,1.812-1.812,11.531,11.531,0,0,1,0,16.308A1.277,1.277,0,0,1,21.777,24.344Zm-4.551-2.416a1.281,1.281,0,0,1-.906-2.187,5.558,5.558,0,0,0,0-7.852,1.281,1.281,0,0,1,1.812-1.812,8.124,8.124,0,0,1,0,11.476A1.278,1.278,0,0,1,17.226,21.928Zm-3.551,5.845a.854.854,0,0,1-.6-.25L6.488,20.94H3.425a.854.854,0,0,1-.854-.854V11.544a.854.854,0,0,1,.854-.854H6.488l6.583-6.583a.854.854,0,0,1,1.458.6V26.919a.854.854,0,0,1-.854.854Z" transform="translate(-2.571 -3.856)" fill="#8b8b8b"/>
</svg>
